<?xml version="1.0" encoding="UTF-8"?>
<svg width="30px" height="30px" viewBox="0 0 30 30" version="1.1" xmlns="http://www.w3.org/2000/svg" xmlns:xlink="http://www.w3.org/1999/xlink">
    <!-- Generator: Sketch 45.2 (43514) - http://www.bohemiancoding.com/sketch -->
    <title>settings</title>
    <desc>Created with Sketch.</desc>
    <defs></defs>
    <g id="Design" stroke="none" stroke-width="1" fill="none" fill-rule="evenodd">
        <g id="Feed" transform="translate(-1316.000000, -12.000000)" fill-rule="nonzero" fill="#AFAFAF">
            <g id="Navbar" transform="translate(-1.000000, -1.000000)">
                <g id="settings" transform="translate(1317.000000, 13.000000)">
                    <path d="M29.906127,13.334425 C29.8586866,12.912718 29.3669806,12.5958238 28.9418029,12.5958238 C27.567147,12.5958238 26.3473144,11.7886869 25.8357393,10.5404207 C25.3131133,9.26190512 25.6501077,7.77086167 26.6745975,6.83111809 C26.9970807,6.53632502 27.0362609,6.04284523 26.7657947,5.70005481 C26.0622254,4.80663425 25.2625474,3.99960894 24.3894205,3.300187 C24.0475146,3.02582072 23.5458741,3.06399536 23.2493994,3.39227495 C22.3552871,4.38247157 20.7492337,4.75048851 19.5081924,4.23267517 C18.2166968,3.68941207 17.4022844,2.38075858 17.4819843,0.975998746 C17.508216,0.534757935 17.1857328,0.151113952 16.7458206,0.0998795644 C15.6253338,-0.0297132971 14.495024,-0.0337316805 13.3711885,0.0909498237 C12.9362994,0.13894718 12.6138162,0.513549801 12.628439,0.949209524 C12.6773305,2.34012826 11.8530951,3.62589929 10.5744364,4.14962858 C9.34824116,4.65047541 7.75346179,4.28558388 6.86113547,3.30420538 C6.56622351,2.98094877 6.07273156,2.94121143 5.72915132,3.20899202 C4.83012752,3.91432992 4.01247799,4.72202496 3.30243449,5.60807848 C3.02549408,5.95254323 3.06623703,6.45182735 3.39195735,6.74818312 C4.43598138,7.69361941 4.7730874,9.19761099 4.23070391,10.4908607 C3.71287781,11.7238346 2.43254469,12.5184699 0.966803258,12.5184699 C0.491171225,12.5031777 0.152390839,12.822416 0.100373818,13.2548387 C-0.0315663519,14.3817719 -0.033129095,15.530025 0.0938995965,16.6661112 C0.141005139,17.0896042 0.647668787,17.4037078 1.07753477,17.4037078 C2.38376478,17.3703329 3.63786614,18.1790325 4.16395245,19.4592225 C4.68836439,20.7377381 4.35125838,22.2278886 3.32520589,23.1684135 C3.00428542,23.4632066 2.96354248,23.955905 3.23400866,24.2986954 C3.9309921,25.1864233 4.73078171,25.99423 5.60703411,26.6994562 C5.95072597,26.9763898 6.45080377,26.9373222 6.74872959,26.6090426 C7.64619064,25.6163903 9.25213245,25.2490431 10.4882623,25.767861 C11.782995,26.3094498 12.5974074,27.6179917 12.5177075,29.0235329 C12.491699,29.4649969 12.8157449,29.8493106 13.2538711,29.8997637 C13.827063,29.9666251 14.4037152,30 14.9819301,30 C15.5307878,30 16.0797572,29.9698621 16.6286149,29.908805 C17.0636156,29.8608077 17.3858756,29.486205 17.3712528,29.049764 C17.3209101,27.6596266 18.1465966,26.3738556 19.423581,25.8510192 C20.6580364,25.3468238 22.2461183,25.7158453 23.1385563,26.6962192 C23.4351426,27.0188061 23.9251742,27.0577621 24.270652,26.7908744 C25.1680015,26.0872109 25.9839766,25.2801856 26.6973689,24.3916764 C26.9741977,24.047993 26.9351291,23.5479275 26.6077344,23.2516833 C25.5637104,22.3062471 25.22493,20.8020322 25.7673135,19.5096755 C26.2772142,18.29311 27.5099953,17.4762619 28.8359828,17.4762619 L29.0215028,17.4810617 C29.451592,17.5159993 29.8473009,17.1847059 29.8994295,16.7456975 C30.031593,15.6177597 30.0331557,14.4705112 29.906127,13.334425 Z M15.0237893,20.0350791 C12.2646547,20.0350791 10.0203323,17.7908121 10.0203323,15.0317454 C10.0203323,12.2727904 12.2646547,10.0284117 15.0237893,10.0284117 C17.7828123,10.0284117 20.0271347,12.2727904 20.0271347,15.0317454 C20.0271347,17.7908121 17.7828123,20.0350791 15.0237893,20.0350791 Z" id="Shape"></path>
                </g>
            </g>
        </g>
    </g>
</svg>