<?xml version="1.0" encoding="UTF-8"?>
<svg width="50px" height="11px" viewBox="0 0 50 11" version="1.1" xmlns="http://www.w3.org/2000/svg" xmlns:xlink="http://www.w3.org/1999/xlink">
    <!-- Generator: Sketch 45.2 (43514) - http://www.bohemiancoding.com/sketch -->
    <title>end-of-feed</title>
    <desc>Created with Sketch.</desc>
    <defs></defs>
    <g id="Design" stroke="none" stroke-width="1" fill="none" fill-rule="evenodd">
        <g id="Feed" transform="translate(-695.000000, -466.000000)" fill-rule="nonzero" fill="#D4D4D4">
            <g id="end-of-feed" transform="translate(695.000000, 466.000000)">
                <path d="M5.4545098,0 C2.44186275,0 0,2.46212884 0,5.5 C0,8.53787116 2.44186275,11 5.4545098,11 C8.46715686,11 10.9091176,8.53787116 10.9091176,5.5 C10.9091176,2.46212884 8.4672549,0 5.4545098,0 Z M25.000049,0 C21.9873039,0 19.5455392,2.46222769 19.5455392,5.5 C19.5455392,8.53777231 21.987402,11 25.000049,11 C28.0126961,11 30.4545588,8.53797002 30.4545588,5.5 C30.4545588,2.46212884 28.0127941,0 25.000049,0 Z M44.5454902,0 C41.5327451,0 39.0909804,2.46222769 39.0909804,5.5 C39.0909804,8.53777231 41.5327451,11 44.5454902,11 C47.5581373,11 50,8.53787116 50,5.5 C50,2.46212884 47.5581373,0 44.5454902,0 Z" id="Shape"></path>
            </g>
        </g>
    </g>
</svg>