<?xml version="1.0" encoding="UTF-8"?>
<svg width="296px" height="32px" viewBox="0 0 296 32" version="1.1" xmlns="http://www.w3.org/2000/svg" xmlns:xlink="http://www.w3.org/1999/xlink">
    <!-- Generator: Sketch 46 (44423) - http://www.bohemiancoding.com/sketch -->
    <title>title</title>
    <desc>Created with Sketch.</desc>
    <defs></defs>
    <g id="Onboarding" stroke="none" stroke-width="1" fill="none" fill-rule="evenodd">
        <g id="Intro" transform="translate(-219.000000, -146.000000)" fill="#9013FE">
            <g id="Group" transform="translate(219.000000, 137.000000)">
                <path d="M20.412,10.53 L20.412,12.096 L11.466,12.096 L11.466,36 L9.63,36 L9.63,12.096 L0.63,12.096 L0.63,10.53 L20.412,10.53 Z M26.658,34.434 L38.736,34.434 L38.736,36 L24.822,36 L24.822,10.53 L26.658,10.53 L26.658,34.434 Z M42.066,20.268 C42.066,20.0399989 42.1079996,19.824001 42.192,19.62 C42.2760004,19.415999 42.3929993,19.2390007 42.543,19.089 C42.6930008,18.9389992 42.866999,18.8190004 43.065,18.729 C43.263001,18.6389995 43.4819988,18.594 43.722,18.594 C43.9500011,18.594 44.165999,18.6389995 44.37,18.729 C44.574001,18.8190004 44.7509992,18.9389992 44.901,19.089 C45.0510008,19.2390007 45.1709996,19.415999 45.261,19.62 C45.3510005,19.824001 45.396,20.0399989 45.396,20.268 C45.396,20.5080012 45.3510005,20.726999 45.261,20.925 C45.1709996,21.123001 45.0510008,21.2969992 44.901,21.447 C44.7509992,21.5970007 44.574001,21.7139996 44.37,21.798 C44.165999,21.8820004 43.9500011,21.924 43.722,21.924 C43.2539977,21.924 42.8610016,21.7650016 42.543,21.447 C42.2249984,21.1289984 42.066,20.7360023 42.066,20.268 Z M42.156,34.47 C42.156,34.0499979 42.2999986,33.6900015 42.588,33.39 C42.8760014,33.0899985 43.2539977,32.94 43.722,32.94 C44.2380026,32.94 44.6369986,33.1169982 44.919,33.471 C45.2010014,33.8250018 45.342,34.2899971 45.342,34.866 C45.342,35.3580025 45.2790006,35.8589975 45.153,36.369 C45.0269994,36.8790026 44.8440012,37.3799975 44.604,37.872 C44.3639988,38.3640025 44.0760017,38.8379977 43.74,39.294 C43.4039983,39.7500023 43.032002,40.1699981 42.624,40.554 L42.354,40.284 C42.2579995,40.1879995 42.21,40.0860005 42.21,39.978 C42.21,39.9179997 42.2279998,39.8580003 42.264,39.798 C42.3000002,39.7379997 42.3419998,39.6840002 42.39,39.636 C42.5100006,39.5159994 42.6629991,39.3390012 42.849,39.105 C43.0350009,38.8709988 43.2209991,38.5950016 43.407,38.277 C43.5930009,37.9589984 43.7609992,37.6080019 43.911,37.224 C44.0610007,36.8399981 44.1599998,36.4320022 44.208,36 C44.1359996,36.0240001 44.0550004,36.0419999 43.965,36.054 C43.8749995,36.0660001 43.7760005,36.072 43.668,36.072 C43.2239978,36.072 42.8610014,35.9220015 42.579,35.622 C42.2969986,35.3219985 42.156,34.9380023 42.156,34.47 Z M73.224,23.256 C73.224,25.2240098 72.9300029,26.9939921 72.342,28.566 C71.7539971,30.1380079 70.9260053,31.4759945 69.858,32.58 C68.7899947,33.6840055 67.5120074,34.5299971 66.024,35.118 C64.5359926,35.7060029 62.8860091,36 61.074,36 L51.786,36 L51.786,10.53 L61.074,10.53 C62.8860091,10.53 64.5359926,10.8239971 66.024,11.412 C67.5120074,12.0000029 68.7899947,12.8459945 69.858,13.95 C70.9260053,15.0540055 71.7539971,16.3919921 72.342,17.964 C72.9300029,19.5360079 73.224,21.2999902 73.224,23.256 Z M71.316,23.256 C71.316,21.4799911 71.0700025,19.896007 70.578,18.504 C70.0859975,17.111993 69.3930045,15.9360048 68.499,14.976 C67.6049955,14.0159952 66.5280063,13.2840025 65.268,12.78 C64.0079937,12.2759975 62.6100077,12.024 61.074,12.024 L53.64,12.024 L53.64,34.506 L61.074,34.506 C62.6100077,34.506 64.0079937,34.2540025 65.268,33.75 C66.5280063,33.2459975 67.6049955,32.5140048 68.499,31.554 C69.3930045,30.5939952 70.0859975,29.418007 70.578,28.026 C71.0700025,26.633993 71.316,25.0440089 71.316,23.256 Z M81.522,24.48 L81.522,36 L79.686,36 L79.686,10.53 L86.184,10.53 C89.1240147,10.53 91.3199927,11.0969943 92.772,12.231 C94.2240073,13.3650057 94.95,15.029989 94.95,17.226 C94.95,18.1980049 94.7820017,19.085996 94.446,19.89 C94.1099983,20.694004 93.6270032,21.398997 92.997,22.005 C92.3669969,22.611003 91.6080044,23.108998 90.72,23.499 C89.8319956,23.889002 88.8300056,24.1439994 87.714,24.264 C88.0020014,24.4440009 88.2599989,24.6839985 88.488,24.984 L97.254,36 L95.652,36 C95.459999,36 95.2950007,35.9640004 95.157,35.892 C95.0189993,35.8199996 94.8840007,35.7000008 94.752,35.532 L86.598,25.2 C86.393999,24.9359987 86.1750012,24.7500005 85.941,24.642 C85.7069988,24.5339995 85.3440025,24.48 84.852,24.48 L81.522,24.48 Z M81.522,23.112 L85.95,23.112 C87.0780056,23.112 88.0889955,22.9770013 88.983,22.707 C89.8770045,22.4369986 90.6329969,22.0500025 91.251,21.546 C91.8690031,21.0419975 92.3399984,20.4360035 92.664,19.728 C92.9880016,19.0199965 93.15,18.2220044 93.15,17.334 C93.15,15.5219909 92.5560059,14.1780044 91.368,13.302 C90.1799941,12.4259956 88.4520113,11.988 86.184,11.988 L81.522,11.988 L81.522,23.112 Z M114.768,17.802 C116.052006,17.802 117.200995,18.0209978 118.215,18.459 C119.229005,18.8970022 120.083997,19.517996 120.78,20.322 C121.476003,21.126004 122.006998,22.0949943 122.373,23.229 C122.739002,24.3630057 122.922,25.631993 122.922,27.036 C122.922,28.440007 122.739002,29.7059944 122.373,30.834 C122.006998,31.9620056 121.476003,32.927996 120.78,33.732 C120.083997,34.536004 119.229005,35.1539978 118.215,35.586 C117.200995,36.0180022 116.052006,36.234 114.768,36.234 C113.483994,36.234 112.335005,36.0180022 111.321,35.586 C110.306995,35.1539978 109.449004,34.536004 108.747,33.732 C108.044996,32.927996 107.511002,31.9620056 107.145,30.834 C106.778998,29.7059944 106.596,28.440007 106.596,27.036 C106.596,25.631993 106.778998,24.3630057 107.145,23.229 C107.511002,22.0949943 108.044996,21.126004 108.747,20.322 C109.449004,19.517996 110.306995,18.8970022 111.321,18.459 C112.335005,18.0209978 113.483994,17.802 114.768,17.802 Z M114.768,34.884 C115.836005,34.884 116.768996,34.7010018 117.567,34.335 C118.365004,33.9689982 119.030997,33.4440034 119.565,32.76 C120.099003,32.0759966 120.497999,31.2510048 120.762,30.285 C121.026001,29.3189952 121.158,28.236006 121.158,27.036 C121.158,25.8479941 121.026001,24.7680049 120.762,23.796 C120.497999,22.8239951 120.099003,21.9930034 119.565,21.303 C119.030997,20.6129965 118.365004,20.0820019 117.567,19.71 C116.768996,19.3379981 115.836005,19.152 114.768,19.152 C113.699995,19.152 112.767004,19.3379981 111.969,19.71 C111.170996,20.0820019 110.505003,20.6129965 109.971,21.303 C109.436997,21.9930034 109.035001,22.8239951 108.765,23.796 C108.494999,24.7680049 108.36,25.8479941 108.36,27.036 C108.36,28.236006 108.494999,29.3189952 108.765,30.285 C109.035001,31.2510048 109.436997,32.0759966 109.971,32.76 C110.505003,33.4440034 111.170996,33.9689982 111.969,34.335 C112.767004,34.7010018 113.699995,34.884 114.768,34.884 Z M128.088,36 L128.088,19.962 L125.568,19.8 C125.219998,19.7759999 125.046,19.6260014 125.046,19.35 L125.046,18.648 L128.088,18.648 L128.088,16.38 C128.088,15.3599949 128.219999,14.4630039 128.484,13.689 C128.748001,12.9149961 129.119998,12.2700026 129.6,11.754 C130.080002,11.2379974 130.658997,10.8510013 131.337,10.593 C132.015003,10.3349987 132.761996,10.206 133.578,10.206 C133.950002,10.206 134.324998,10.2389997 134.703,10.305 C135.081002,10.3710003 135.413999,10.4639994 135.702,10.584 L135.648,11.412 C135.636,11.5800008 135.522001,11.664 135.306,11.664 C135.161999,11.664 134.967001,11.6460002 134.721,11.61 C134.474999,11.5739998 134.172002,11.556 133.812,11.556 C133.223997,11.556 132.681002,11.6429991 132.183,11.817 C131.684998,11.9910009 131.256002,12.2699981 130.896,12.654 C130.535998,13.0380019 130.257001,13.5389969 130.059,14.157 C129.860999,14.7750031 129.762,15.5339955 129.762,16.434 L129.762,18.648 L135.576,18.648 L135.576,19.926 L129.798,19.926 L129.798,36 L128.088,36 Z M150.858,36.288 C149.645994,36.288 148.701003,35.9520034 148.023,35.28 C147.344997,34.6079966 147.006,33.570007 147.006,32.166 L147.006,19.926 L144.432,19.926 C144.299999,19.926 144.192,19.8900004 144.108,19.818 C144.024,19.7459996 143.982,19.6440007 143.982,19.512 L143.982,18.846 L147.042,18.63 L147.474,12.222 C147.486,12.1139995 147.531,12.0180004 147.609,11.934 C147.687,11.8499996 147.791999,11.808 147.924,11.808 L148.734,11.808 L148.734,18.648 L154.368,18.648 L154.368,19.926 L148.734,19.926 L148.734,32.076 C148.734,32.5680025 148.796999,32.9909982 148.923,33.345 C149.049001,33.6990018 149.222999,33.9899989 149.445,34.218 C149.667001,34.4460011 149.927999,34.6139995 150.228,34.722 C150.528002,34.8300005 150.851998,34.884 151.2,34.884 C151.632002,34.884 152.003998,34.8210006 152.316,34.695 C152.628002,34.5689994 152.897999,34.4310007 153.126,34.281 C153.354001,34.1309993 153.539999,33.9930006 153.684,33.867 C153.828001,33.7409994 153.942,33.678 154.026,33.678 C154.122,33.678 154.218,33.7379994 154.314,33.858 L154.782,34.614 C154.325998,35.1180025 153.747004,35.5229985 153.045,35.829 C152.342996,36.1350015 151.614004,36.288 150.858,36.288 Z M158.796,36 L158.796,9.81 L160.506,9.81 L160.506,21.15 C161.334004,20.1299949 162.278995,19.317003 163.341,18.711 C164.403005,18.104997 165.593993,17.802 166.914,17.802 C167.898005,17.802 168.764996,17.9579984 169.515,18.27 C170.265004,18.5820016 170.885998,19.0319971 171.378,19.62 C171.870002,20.2080029 172.241999,20.9159959 172.494,21.744 C172.746001,22.5720041 172.872,23.5079948 172.872,24.552 L172.872,36 L171.162,36 L171.162,24.552 C171.162,22.8719916 170.778004,21.5550048 170.01,20.601 C169.241996,19.6469952 168.066008,19.17 166.482,19.17 C165.305994,19.17 164.214005,19.472997 163.206,20.079 C162.197995,20.685003 161.298004,21.5159947 160.506,22.572 L160.506,36 L158.796,36 Z M185.022,17.802 C186.030005,17.802 186.962996,17.9759983 187.821,18.324 C188.679004,18.6720017 189.422997,19.1789967 190.053,19.845 C190.683003,20.5110033 191.174998,21.3299951 191.529,22.302 C191.883002,23.2740049 192.06,24.3899937 192.06,25.65 C192.06,25.9140013 192.021,26.0939995 191.943,26.19 C191.865,26.2860005 191.742001,26.334 191.574,26.334 L178.632,26.334 L178.632,26.676 C178.632,28.0200067 178.787998,29.2019949 179.1,30.222 C179.412002,31.2420051 179.855997,32.0969966 180.432,32.787 C181.008003,33.4770034 181.703996,33.9959983 182.52,34.344 C183.336004,34.6920017 184.247995,34.866 185.256,34.866 C186.156004,34.866 186.935997,34.767001 187.596,34.569 C188.256003,34.370999 188.810998,34.1490012 189.261,33.903 C189.711002,33.6569988 190.067999,33.435001 190.332,33.237 C190.596001,33.038999 190.787999,32.94 190.908,32.94 C191.064001,32.94 191.184,32.9999994 191.268,33.12 L191.736,33.696 C191.447999,34.0560018 191.067002,34.3919984 190.593,34.704 C190.118998,35.0160016 189.591003,35.2829989 189.009,35.505 C188.426997,35.7270011 187.803003,35.9039993 187.137,36.036 C186.470997,36.1680007 185.802003,36.234 185.13,36.234 C183.905994,36.234 182.790005,36.0210021 181.782,35.595 C180.773995,35.1689979 179.910004,34.5480041 179.19,33.732 C178.469996,32.9159959 177.915002,31.9170059 177.525,30.735 C177.134998,29.5529941 176.94,28.2000076 176.94,26.676 C176.94,25.3919936 177.122998,24.2070054 177.489,23.121 C177.855002,22.0349946 178.382997,21.0990039 179.073,20.313 C179.763003,19.5269961 180.608995,18.9120022 181.611,18.468 C182.613005,18.0239978 183.749994,17.802 185.022,17.802 Z M185.04,19.08 C184.115995,19.08 183.288004,19.2239986 182.556,19.512 C181.823996,19.8000014 181.191003,20.2139973 180.657,20.754 C180.122997,21.2940027 179.691002,21.9419962 179.361,22.698 C179.030998,23.4540038 178.812001,24.2999953 178.704,25.236 L190.512,25.236 C190.512,24.2759952 190.380001,23.4150038 190.116,22.653 C189.851999,21.8909962 189.480002,21.2460026 189,20.718 C188.519998,20.1899974 187.944003,19.7850014 187.272,19.503 C186.599997,19.2209986 185.856004,19.08 185.04,19.08 Z M201.006,10.53 L202.536,10.53 C202.884002,10.53 203.106,10.6919984 203.202,11.016 L209.628,31.95 C209.7,32.1900012 209.763,32.4479986 209.817,32.724 C209.871,33.0000014 209.928,33.2879985 209.988,33.588 C210.048,33.2879985 210.108,33.0000014 210.168,32.724 C210.228,32.4479986 210.3,32.1900012 210.384,31.95 L217.584,11.016 C217.632,10.8839993 217.715999,10.7700005 217.836,10.674 C217.956001,10.5779995 218.099999,10.53 218.268,10.53 L218.772,10.53 C218.940001,10.53 219.077999,10.5749995 219.186,10.665 C219.294001,10.7550004 219.378,10.8719993 219.438,11.016 L226.638,31.95 C226.722,32.1900012 226.797,32.4419987 226.863,32.706 C226.929,32.9700013 226.992,33.2519985 227.052,33.552 C227.112,33.2639986 227.166,32.9850013 227.214,32.715 C227.262,32.4449987 227.322,32.1900012 227.394,31.95 L233.82,11.016 C233.856,10.8839993 233.936999,10.7700005 234.063,10.674 C234.189001,10.5779995 234.335999,10.53 234.504,10.53 L235.908,10.53 L227.898,36 L226.242,36 L218.718,13.896 C218.622,13.6079986 218.538,13.3020016 218.466,12.978 C218.394,13.3020016 218.31,13.6079986 218.214,13.896 L210.672,36 L209.034,36 L201.006,10.53 Z M245.97,17.802 C247.254006,17.802 248.402995,18.0209978 249.417,18.459 C250.431005,18.8970022 251.285997,19.517996 251.982,20.322 C252.678003,21.126004 253.208998,22.0949943 253.575,23.229 C253.941002,24.3630057 254.124,25.631993 254.124,27.036 C254.124,28.440007 253.941002,29.7059944 253.575,30.834 C253.208998,31.9620056 252.678003,32.927996 251.982,33.732 C251.285997,34.536004 250.431005,35.1539978 249.417,35.586 C248.402995,36.0180022 247.254006,36.234 245.97,36.234 C244.685994,36.234 243.537005,36.0180022 242.523,35.586 C241.508995,35.1539978 240.651004,34.536004 239.949,33.732 C239.246996,32.927996 238.713002,31.9620056 238.347,30.834 C237.980998,29.7059944 237.798,28.440007 237.798,27.036 C237.798,25.631993 237.980998,24.3630057 238.347,23.229 C238.713002,22.0949943 239.246996,21.126004 239.949,20.322 C240.651004,19.517996 241.508995,18.8970022 242.523,18.459 C243.537005,18.0209978 244.685994,17.802 245.97,17.802 Z M245.97,34.884 C247.038005,34.884 247.970996,34.7010018 248.769,34.335 C249.567004,33.9689982 250.232997,33.4440034 250.767,32.76 C251.301003,32.0759966 251.699999,31.2510048 251.964,30.285 C252.228001,29.3189952 252.36,28.236006 252.36,27.036 C252.36,25.8479941 252.228001,24.7680049 251.964,23.796 C251.699999,22.8239951 251.301003,21.9930034 250.767,21.303 C250.232997,20.6129965 249.567004,20.0820019 248.769,19.71 C247.970996,19.3379981 247.038005,19.152 245.97,19.152 C244.901995,19.152 243.969004,19.3379981 243.171,19.71 C242.372996,20.0820019 241.707003,20.6129965 241.173,21.303 C240.638997,21.9930034 240.237001,22.8239951 239.967,23.796 C239.696999,24.7680049 239.562,25.8479941 239.562,27.036 C239.562,28.236006 239.696999,29.3189952 239.967,30.285 C240.237001,31.2510048 240.638997,32.0759966 241.173,32.76 C241.707003,33.4440034 242.372996,33.9689982 243.171,34.335 C243.969004,34.7010018 244.901995,34.884 245.97,34.884 Z M258.624,36 L258.624,18.09 L259.524,18.09 C259.728001,18.09 259.875,18.1319996 259.965,18.216 C260.055,18.3000004 260.106,18.443999 260.118,18.648 L260.262,22.428 C260.838003,20.9759927 261.605995,19.8390041 262.566,19.017 C263.526005,18.1949959 264.707993,17.784 266.112,17.784 C266.652003,17.784 267.149998,17.8409994 267.606,17.955 C268.062002,18.0690006 268.493998,18.2339989 268.902,18.45 L268.668,19.638 C268.632,19.830001 268.512001,19.926 268.308,19.926 C268.236,19.926 268.134001,19.9020002 268.002,19.854 C267.869999,19.8059998 267.705001,19.7520003 267.507,19.692 C267.308999,19.6319997 267.066001,19.5780002 266.778,19.53 C266.489999,19.4819998 266.160002,19.458 265.788,19.458 C264.431993,19.458 263.319004,19.8779958 262.449,20.718 C261.578996,21.5580042 260.874003,22.7699921 260.334,24.354 L260.334,36 L258.624,36 Z M275.13,9.81 L275.13,36 L273.42,36 L273.42,9.81 L275.13,9.81 Z M294.156,36 C293.855999,36 293.682,35.8440016 293.634,35.532 L293.454,32.706 C292.661996,33.7860054 291.735005,34.6439968 290.673,35.28 C289.610995,35.9160032 288.420007,36.234 287.1,36.234 C284.903989,36.234 283.191006,35.4720076 281.961,33.948 C280.730994,32.4239924 280.116,30.1380152 280.116,27.09 C280.116,25.7819935 280.286998,24.5610057 280.629,23.427 C280.971002,22.2929943 281.474997,21.3090042 282.141,20.475 C282.807003,19.6409958 283.622995,18.9840024 284.589,18.504 C285.555005,18.0239976 286.667994,17.784 287.928,17.784 C289.140006,17.784 290.189996,18.0089977 291.078,18.459 C291.966004,18.9090022 292.733997,19.5659957 293.382,20.43 L293.382,9.81 L295.11,9.81 L295.11,36 L294.156,36 Z M287.586,34.848 C288.774006,34.848 289.847995,34.5420031 290.808,33.93 C291.768005,33.3179969 292.625996,32.4660055 293.382,31.374 L293.382,21.924 C292.685997,20.9039949 291.921004,20.1840021 291.087,19.764 C290.252996,19.3439979 289.308005,19.134 288.252,19.134 C287.195995,19.134 286.272004,19.3259981 285.48,19.71 C284.687996,20.0940019 284.025003,20.6369965 283.491,21.339 C282.956997,22.0410035 282.555001,22.8809951 282.285,23.859 C282.014999,24.8370049 281.88,25.9139941 281.88,27.09 C281.88,29.7540133 282.371995,31.7129937 283.356,32.967 C284.340005,34.2210063 285.749991,34.848 287.586,34.848 Z" id="title"></path>
            </g>
        </g>
    </g>
</svg>