<?xml version="1.0" encoding="UTF-8"?>
<svg width="77px" height="77px" viewBox="0 0 77 77" version="1.1" xmlns="http://www.w3.org/2000/svg" xmlns:xlink="http://www.w3.org/1999/xlink">
    <!-- Generator: Sketch 46 (44423) - http://www.bohemiancoding.com/sketch -->
    <title>world-quote</title>
    <desc>Created with Sketch.</desc>
    <defs></defs>
    <g id="Onboarding" stroke="none" stroke-width="1" fill="none" fill-rule="evenodd">
        <g id="Intro" transform="translate(-330.000000, -201.000000)" fill-rule="nonzero" fill="#9013FE">
            <g id="Group" transform="translate(219.000000, 137.000000)">
                <g id="world-quote" transform="translate(111.000000, 64.000000)">
                    <path d="M65.6613387,19.2221625 C64.5751258,17.9882309 63.569174,16.7932917 62.4974217,15.6610389 C62.3012317,15.4548248 62.1173628,15.3568048 61.9564389,15.3572737 C62.4206601,13.5863712 62.6744958,11.3460361 62.7179779,8.63626828 C65.2401952,10.694348 67.5345431,13.1152205 69.5999687,15.8958366 C69.4228734,16.1912402 69.2276806,16.4709651 69.0144102,16.7350297 C68.2324187,17.7039693 67.1140879,18.5336108 65.6613387,19.2221625 Z M64.7944394,23.3239685 L65.1476113,23.9985109 C65.5407302,24.7465942 66.5133606,25.0746912 67.3538217,24.7465942 C69.5954299,23.8704416 71.4885945,22.7616604 73.033214,21.414134 C74.9868921,25.2525382 76.2361181,29.3736515 76.7188657,33.7509033 C78.1164156,46.414251 74.3097998,57.3453887 65.1565538,66.2880262 C58.8537134,72.4408821 51.2065694,75.9669638 42.4430018,76.8003409 C31.0242639,77.882735 20.9522069,74.5650372 12.4734105,66.8271679 C5.34208737,60.3199963 1.32502306,52.1607743 0.237124262,42.5929854 C-2.04278833,22.5478232 12.3773775,3.70632255 32.3219774,0.652819973 C34.2641898,0.355106239 36.2284295,0.213601304 38.1842702,0 C38.3224564,0 38.4606425,0 38.5997794,0 C40.6931725,0.216289107 42.8082759,0.309729796 44.8764722,0.668788686 C46.3010948,0.916421502 47.6867415,1.22773866 49.0333367,1.60252143 L49.0333367,7.36095092 C49.0231413,7.35450101 49.0129366,7.34806915 49.0027225,7.34165547 C47.2231008,6.22194827 45.4255718,7.0403053 43.6572015,7.45564995 C43.4678294,8.8967868 43.2683153,9.09109916 41.8915251,8.6831855 C40.2527834,8.1963769 38.6950201,7.5141492 37.5785967,6.10811189 C37.4385089,5.93008446 37.1027103,5.79221596 36.8792671,5.8165643 C35.1890226,6.00866317 33.5011552,6.22969546 31.8207358,6.4908867 C31.5790686,6.53025511 31.200166,6.85405634 31.2039693,7.0404634 C31.2095158,7.36379032 31.4236092,7.92063991 31.625025,7.95621377 C32.1706383,8.05202605 32.8038857,8.04997068 33.3121001,7.85565831 C34.0076263,7.58561314 34.5985622,7.0613334 35.2749135,6.72630664 C36.0940466,6.3217132 36.6856164,6.62021746 36.9188847,7.50244935 C37.1950985,8.54768859 36.8219009,9.43355691 35.9680627,9.97712559 C34.8047321,10.7148485 33.5290459,11.277548 32.3243545,11.9540839 C31.4785984,12.4269792 30.6120826,12.8941826 29.8604579,13.4960924 C29.2557351,13.9800551 28.8365811,14.7315333 29.3161123,15.5034071 C29.7625232,16.2212087 30.5526563,16.0529838 31.2087234,15.8212003 C31.8822223,15.583725 32.5199069,15.2328876 33.1471324,14.8833151 C33.5296798,14.6701881 33.8434511,14.3370586 34.2196596,14.1090697 C34.9676396,13.6548309 35.3655585,13.8081938 35.6512805,14.619278 C36.1309702,15.9818361 37.0451855,16.297732 38.2679426,15.5075179 C38.7975504,15.1660088 39.2734368,14.7343792 39.8238043,14.4366655 C40.6372324,13.9993441 41.5083438,14.4641759 41.5880544,15.3170001 C41.7031039,16.5660381 41.9943723,16.808889 43.2355119,16.67023 C43.9679618,16.5878567 44.6977176,16.4800283 45.4284243,16.3818445 C45.4938725,16.4566287 45.5567853,16.5295155 45.6212827,16.6042997 C45.3674132,17.0790923 45.2186096,17.6827412 44.8325759,17.9986372 C44.2367274,18.482758 43.5033268,18.8252157 42.7859316,19.1294118 C41.7433553,19.5728993 40.8058449,19.8397824 40.7711399,19.9000208 C40.7711399,19.9000208 42.2350887,20.4907051 41.4623874,20.7098401 C40.1901876,21.0687409 38.2649316,23.1269657 41.0303973,22.2724024 C41.525934,22.1209368 42.0319298,21.9995113 42.7296746,21.811207 C42.1479301,23.5573305 40.9191511,24.2428784 39.7009897,24.8938011 C36.0591832,26.8370828 35.9312976,31.4947296 37.79063,33.8848191 C38.1942539,34.403407 38.5300525,34.9874509 38.8157745,35.5800324 C39.1463436,36.2622601 39.1233654,37.0803009 38.4663474,37.4392017 C38.025166,37.6804716 37.1382076,37.6294033 36.743775,37.3290018 C35.7866142,36.5977612 34.919623,35.7080983 34.1665721,34.7604105 C33.2092528,33.5586463 32.5216501,32.1306322 31.5077569,30.98547 C28.2350277,27.2880014 24.5412429,28.10288 21.3789675,30.8858631 C20.5780585,31.5910162 20.6843921,32.2283418 21.5672303,32.8071681 C21.8805261,33.0114412 22.2242482,33.1833025 22.5731999,33.3230682 C23.9774055,33.8897204 25.3903269,34.4294945 26.7953248,34.9939332 C27.0843747,35.109825 27.3808727,35.2448475 27.6206383,35.4369464 C28.1068252,35.8276265 28.1336067,36.2439198 27.4984576,36.4967314 C27.0344565,36.6793439 26.5365428,36.7901763 26.0457602,36.8967398 C25.1240967,37.0965859 24.1476026,37.1527135 23.288218,37.5003888 C22.7895119,37.7021321 22.2177509,38.3185877 22.1516688,38.8110881 C22.0949364,39.2305435 22.6541782,39.8043105 23.0551081,40.191196 C23.3543001,40.4770518 23.8588696,40.5398199 24.2320673,40.7678089 C24.7510576,41.0818075 25.3101409,41.3882171 25.7139233,41.8237993 C26.3966135,42.5621547 26.8791556,42.7452415 27.7646878,42.2517925 C28.6170997,41.7769999 29.4384514,41.2481351 30.2613878,40.7229067 C31.2369311,40.1023404 31.4220245,40.1788638 31.9839602,41.1750901 C32.682339,42.4143255 33.6471063,43.4349002 35.2127932,43.1582146 C36.3298505,42.9582104 37.3920771,42.4442076 38.4804513,42.0769271 C39.2228848,41.8274358 39.9529576,41.4630013 40.714566,41.3733551 C42.2721708,41.1863156 43.467354,42.5022325 43.5554635,44.3245631 C43.643573,46.1468937 42.7978169,47.5113491 41.5078684,48.6954054 C40.2432752,49.8571689 39.563279,51.1822559 40.1445482,52.9868786 C40.7622655,54.904389 40.1041383,56.5510638 38.6341675,57.8257149 C37.6145694,58.7125319 36.4864192,59.4807693 35.3614383,60.2358839 C34.0445499,61.1181158 31.8498943,65.9571102 32.3332288,67.6616518 C32.4254586,67.9811842 32.4522401,68.0240309 32.428311,68.369967 C32.3018517,70.1858152 31.3675107,69.8661247 29.7419221,70.15119 C28.8229526,70.3118258 28.9129638,68.369967 28.7031491,67.4822014 C28.5007825,66.629061 28.5017333,65.6813732 28.6346899,64.8095763 C28.7652694,63.9515347 29.1690518,63.136656 29.4636482,62.3067572 C30.0786715,60.5656931 29.6322606,59.0845555 28.3527712,57.8238176 C27.7925786,57.2715531 27.1800908,56.7706731 26.6035757,56.2313733 C24.5114505,54.2781309 23.4947048,51.8213206 23.3847264,49.0094041 C23.3291033,47.5935642 24.0263728,46.9488077 25.4332723,46.8150499 C25.7278687,46.7880138 26.0215142,46.7486454 26.3165859,46.7149688 C26.150826,45.5375529 25.7189943,45.0909032 24.5654888,45.0180163 C23.4690326,44.9508212 22.8311896,44.3338913 22.4091831,43.433161 C22.2115706,43.0125989 22.1768656,42.5191498 22.0111056,42.0818284 C21.6149298,41.0388027 21.3376067,39.9061308 20.7217911,39.0052424 C20.1676203,38.1951069 19.7139198,37.4935902 19.7349963,36.4619481 C19.7443461,35.9797246 19.3972961,35.4190804 19.0605466,35.0185978 C18.2981459,34.1162864 17.4531821,33.2808539 16.6177265,32.4416269 C16.2898514,32.1126081 15.8954188,31.8473062 15.3545596,31.4099848 C15.3181114,32.2368795 15.3171606,32.7709618 15.2642315,33.2980875 C15.1905428,34.0452968 15.1807176,34.8247597 14.940952,35.5199521 C14.8083123,35.9087349 14.2370268,36.4265323 13.9096271,36.394753 C13.493801,36.3553846 12.8919307,35.885019 12.7829031,35.4867498 C12.5824381,34.7574065 12.5285582,33.9126458 12.6832253,33.1711283 C13.4071177,29.6913718 13.7134409,26.1977019 13.3074399,22.6577069 C13.1581608,21.361079 12.9787724,20.0695105 12.7955807,18.6316939 C5.98452607,26.6260112 2.72019581,41.1508999 9.42032123,53.9867414 C16.6120216,67.7626816 32.0045614,74.6967396 47.0841223,70.8783198 C51.029558,69.878457 54.5449053,68.2262486 57.6041749,66.1291296 C55.9565589,65.6665113 53.4349791,64.6544743 53.2072572,58.2772659 C52.8877811,49.3447471 54.3265331,47.4310312 55.1255405,47.4310312 C55.9245479,47.4310312 56.4040791,46.7937056 58.9622656,49.6644376 C61.5204521,52.5354857 62.7988322,51.1001988 62.9590457,49.1861667 C63.1192592,47.2721346 65.0375425,44.4404548 65.8365499,47.3712671 C66.386442,49.3898073 67.617281,51.7549161 68.5923489,53.4512361 C70.4356758,49.733688 71.512957,45.8151871 71.7536735,42.0500491 C71.2666941,41.8481477 70.7600645,41.6677486 70.2832273,41.4304314 C68.135479,40.3546777 66.8783339,38.6689508 66.7856287,36.2265282 C66.7162187,34.4358188 66.4156005,34.0675897 64.5797218,33.6677395 C62.6557335,33.2493908 62.0432457,32.3859735 62.5826787,30.4958155 C62.9435156,29.2365006 63.537304,28.04027 64.0776878,26.8366085 C64.5869366,25.7017861 64.9433874,24.5811507 64.7944394,23.3239685 Z M51.5451627,11.3076064 L55.6587457,11.3076064 C55.621021,12.7377579 55.3901944,14.0005226 54.9669474,15.0965354 C54.9216181,14.4009439 54.5329061,14.1327397 53.6806081,14.1724702 C53.3330827,14.1897038 52.9884097,14.2603772 52.6427859,14.2678082 C51.5487068,14.2850417 50.864115,13.4594118 51.1338315,12.4029471 C51.23005,12.0272388 51.4036454,11.6711306 51.5451627,11.3076064 Z" id="Combined-Shape"></path>
                    <path d="M75.6186209,0 C76.3811145,0 77,0.624677717 77,1.39430766 L77,8.05909826 C77,11.3217782 76.7154635,13.8928815 76.1463077,15.7779855 C75.5771795,17.6630894 74.5245963,19.3529903 72.9884751,20.8504767 C71.728685,22.0774675 70.1842756,23.0869462 68.3553297,23.8844902 C67.6701657,24.1828999 66.8772541,23.8844902 66.5567741,23.2040959 L65.5621812,21.0847483 C65.2306502,20.3764121 65.5373164,19.5286731 66.2473452,19.2135595 C67.7917547,18.5247715 68.9465599,17.651935 69.7090812,16.5978384 C70.6760466,15.2620916 71.1871568,13.4857716 71.2396492,11.2660059 L67.2198361,11.2660059 C66.4573148,11.2660059 65.838457,10.6413839 65.838457,9.87169822 L65.838457,1.39430766 C65.838457,0.624649831 66.4573148,0 67.2198361,0 L75.6186209,0 Z M52.9295487,23.8832743 C52.2443846,24.1845277 51.4459475,23.8832743 51.1254399,23.2027558 L50.1336098,21.0885993 C49.8020788,20.3801338 50.1087449,19.5322399 50.8187738,19.2170688 C52.3631556,18.528155 53.5179885,17.655159 54.2805098,16.6008699 C55.2474751,15.2648792 55.7585854,13.4882347 55.8110778,11.2680636 L51.7912647,11.2680636 C51.0287434,11.2680636 50.4098856,10.6433275 50.4098856,9.87350123 L50.4098856,1.39456232 C50.4098856,0.62476392 51.0287434,0 51.7912647,0 L60.1900495,0 C60.9525984,0 61.5714286,0.62476392 61.5714286,1.39456232 L61.5714286,8.06057021 C61.5714286,11.3489482 61.2868921,13.9288885 60.7177639,15.8003911 C60.1486357,17.6718937 59.0904994,19.356525 57.540592,20.8542849 C56.272486,22.0787386 54.7363925,23.0883738 52.9295487,23.8832743 Z" id="Combined-Shape"></path>
                </g>
            </g>
        </g>
    </g>
</svg>